<?xml version="1.0" encoding="utf-8"?>
<!-- Generator: Adobe Illustrator 17.1.0, SVG Export Plug-In . SVG Version: 6.00 Build 0)  -->
<!DOCTYPE svg PUBLIC "-//W3C//DTD SVG 1.1//EN" "http://www.w3.org/Graphics/SVG/1.1/DTD/svg11.dtd" [
	<!ENTITY ns_flows "http://ns.adobe.com/Flows/1.0/">
	<!ENTITY ns_extend "http://ns.adobe.com/Extensibility/1.0/">
	<!ENTITY ns_ai "http://ns.adobe.com/AdobeIllustrator/10.0/">
	<!ENTITY ns_graphs "http://ns.adobe.com/Graphs/1.0/">
]>
<svg version="1.1" id="Layer_1" xmlns:x="&ns_extend;" xmlns:i="&ns_ai;" xmlns:graph="&ns_graphs;"
	 xmlns="http://www.w3.org/2000/svg" xmlns:xlink="http://www.w3.org/1999/xlink" xmlns:a="http://ns.adobe.com/AdobeSVGViewerExtensions/3.0/"
	 x="0px" y="0px" width="139.6px" height="44.3px" viewBox="0 0 139.6 44.3" style="enable-background:new 0 0 139.6 44.3;"
	 xml:space="preserve">
<style type="text/css">
	.st0{fill:#535D5E;}
	.st1{fill:#56C7E2;}
</style>
<g>
	<path class="st0" d="M40.8,14.2l4.3,12.4l4.4-12.4H51l-5,14h-1.7l-6.6-17.6L40.8,14.2z"/>
	<path class="st0" d="M54.2,27.1h4.9v1.1h-6.3v-14h1.4V27.1z"/>
	<path class="st0" d="M68.7,24.8h-6.1l-1.2,3.4h-1.4l5-13.7h1.5l5,13.7h-1.5L68.7,24.8z M68.3,23.7l-2.7-7.6L63,23.7H68.3z"/>
	<path class="st0" d="M83.6,25c-0.5,1.1-1.4,1.9-2.4,2.4c-1.1,0.6-2.4,0.8-3.9,0.8h-4.1v-14h4.1c2.3,0,4,0.6,5.3,1.9
		c1.2,1.2,1.8,3,1.8,5.1C84.4,22.7,84.2,23.9,83.6,25z M81.6,25.5c1-1,1.5-2.4,1.5-4.2c0-1.8-0.5-3.2-1.5-4.2s-2.4-1.5-4.3-1.5h-2.6
		V27h2.6C79.1,27,80.6,26.5,81.6,25.5z"/>
	<path class="st0" d="M95.9,14.2l-4.3,8.5v5.5h-1.4v-5.5l-4.4-8.5h1.6l3.5,7.1l3.5-7.1H95.9z"/>
	<path class="st0" d="M105.6,26.5c-0.3,0.6-0.7,1-1.3,1.4c-0.6,0.4-1.3,0.5-2.2,0.5c-0.9,0-1.6-0.2-2.3-0.5
		c-0.7-0.3-1.2-0.8-1.6-1.4c-0.4-0.6-0.6-1.2-0.7-1.9h1.4c0.1,0.4,0.2,0.8,0.4,1.2c0.2,0.4,0.6,0.8,1.1,1c0.5,0.3,1,0.4,1.7,0.4
		c0.9,0,1.5-0.2,2-0.7c0.5-0.5,0.7-1.1,0.7-1.8c0-0.6-0.2-1.1-0.5-1.5c-0.3-0.4-0.7-0.7-1.1-0.9c-0.4-0.2-1-0.4-1.8-0.7
		c-0.8-0.3-1.5-0.5-2-0.8c-0.5-0.3-1-0.6-1.3-1.1c-0.4-0.5-0.5-1.2-0.5-2c0-1.1,0.4-1.9,1.1-2.6c0.7-0.7,1.7-1,2.9-1
		c1.3,0,2.3,0.3,3,1c0.7,0.6,1.2,1.5,1.3,2.4h-1.4c-0.1-0.6-0.4-1.1-0.9-1.6c-0.5-0.5-1.2-0.7-2-0.7c-0.8,0-1.4,0.2-1.9,0.6
		c-0.5,0.4-0.7,1-0.7,1.8c0,0.6,0.1,1.1,0.4,1.5c0.3,0.4,0.7,0.7,1.1,0.9c0.4,0.2,1,0.4,1.8,0.7c0.9,0.3,1.5,0.6,2.1,0.8
		c0.5,0.3,1,0.7,1.3,1.2s0.6,1.2,0.6,2.1C106.1,25.3,105.9,25.9,105.6,26.5z"/>
	<path class="st0" d="M109.9,27.1h4.9v1.1h-6.3v-14h1.4V27.1z"/>
	<path class="st0" d="M124.4,24.8h-6.1l-1.2,3.4h-1.4l5-13.7h1.5l5,13.7h-1.5L124.4,24.8z M124,23.7l-2.7-7.6l-2.7,7.6H124z"/>
	<path class="st0" d="M129.4,14.2l4.3,12.4l4.4-12.4h1.5l-5,14h-1.7l-5-14H129.4z"/>
</g>
<g>
	<path class="st1" d="M57.4,30.8l-2.1,8.1h-1.3l-1.9-6.6l-1.9,6.6H49l-2.1-8.1h1.2l1.6,6.9l1.9-6.9h1.2l1.9,6.9l1.6-6.9H57.4z"/>
	<path class="st1" d="M59.7,31.6v2.8h3.1v0.8h-3.1V38h3.4v0.9h-4.5v-8.1h4.5v0.9H59.7z"/>
	<path class="st1" d="M69.7,35.4c0.3,0.4,0.5,0.8,0.5,1.3c0,0.7-0.2,1.2-0.7,1.6c-0.5,0.4-1.1,0.6-2,0.6h-3v-8.1h3
		c0.8,0,1.4,0.2,1.9,0.5c0.4,0.4,0.6,0.9,0.6,1.5c0,0.5-0.1,0.9-0.4,1.3c-0.3,0.3-0.6,0.5-1.1,0.6C69,34.8,69.4,35,69.7,35.4z
		 M65.6,34.3h1.8c0.5,0,0.9-0.1,1.2-0.4c0.3-0.2,0.4-0.6,0.4-1c0-0.4-0.1-0.7-0.4-1c-0.3-0.2-0.7-0.4-1.2-0.4h-1.7V34.3z M68.7,37.6
		c0.3-0.3,0.5-0.6,0.5-1.1c0-0.5-0.2-0.8-0.5-1.1s-0.7-0.4-1.3-0.4h-1.8V38h1.8C67.9,38,68.4,37.9,68.7,37.6z"/>
	<path class="st1" d="M80.8,37c-0.3,0.6-0.8,1.1-1.5,1.4c-0.6,0.3-1.4,0.5-2.3,0.5h-2.6v-8.1H77c0.9,0,1.7,0.2,2.3,0.5
		c0.6,0.3,1.1,0.8,1.5,1.4c0.3,0.6,0.5,1.3,0.5,2.2C81.3,35.6,81.1,36.4,80.8,37z M79.3,37.1c0.6-0.5,0.8-1.3,0.8-2.3
		c0-1-0.3-1.8-0.8-2.3c-0.6-0.5-1.4-0.8-2.4-0.8h-1.5v6.3h1.5C78,37.9,78.8,37.7,79.3,37.1z"/>
	<path class="st1" d="M83.7,31.6v2.8h3.1v0.8h-3.1V38h3.5v0.9h-4.5v-8.1h4.5v0.9H83.7z"/>
	<path class="st1" d="M89.1,30.8l2.5,7l2.5-7h1.1l-3,8.1h-1.3l-3-8.1H89.1z"/>
	<path class="st1" d="M97.4,31.6v2.8h3.1v0.8h-3.1V38h3.5v0.9h-4.5v-8.1h4.5v0.9H97.4z"/>
	<path class="st1" d="M103.2,38.1h2.9v0.8h-3.9v-8.1h1.1V38.1z"/>
	<path class="st1" d="M113,31.2c0.6,0.4,1.1,0.8,1.4,1.5c0.3,0.6,0.5,1.3,0.5,2.1c0,0.8-0.2,1.5-0.5,2.1c-0.3,0.6-0.8,1.1-1.4,1.5
		s-1.3,0.5-2,0.5c-0.8,0-1.4-0.2-2.1-0.5c-0.6-0.4-1.1-0.8-1.4-1.5c-0.3-0.6-0.5-1.3-0.5-2.1c0-0.8,0.2-1.5,0.5-2.1
		c0.3-0.6,0.8-1.1,1.4-1.5c0.6-0.4,1.3-0.5,2.1-0.5C111.7,30.7,112.4,30.8,113,31.2z M109.4,32c-0.4,0.3-0.8,0.6-1,1.1
		c-0.3,0.5-0.4,1-0.4,1.7c0,0.6,0.1,1.2,0.4,1.7c0.3,0.5,0.6,0.9,1,1.1c0.4,0.3,0.9,0.4,1.5,0.4c0.6,0,1.1-0.1,1.5-0.4
		c0.4-0.3,0.8-0.6,1-1.1c0.3-0.5,0.4-1,0.4-1.7c0-0.6-0.1-1.2-0.4-1.7c-0.3-0.5-0.6-0.8-1-1.1c-0.4-0.3-0.9-0.4-1.5-0.4
		C110.4,31.6,109.9,31.8,109.4,32z"/>
	<path class="st1" d="M117.4,35.6v3.3h-1.1v-8.1h2.6c0.9,0,1.6,0.2,2.1,0.7c0.5,0.4,0.7,1,0.7,1.8c0,0.8-0.2,1.4-0.7,1.8
		c-0.5,0.4-1.2,0.6-2.1,0.6H117.4z M120.2,34.3c0.3-0.3,0.4-0.6,0.4-1.1c0-0.5-0.1-0.9-0.4-1.2c-0.3-0.3-0.7-0.4-1.4-0.4h-1.4v3.1
		h1.4C119.5,34.7,119.9,34.6,120.2,34.3z"/>
	<path class="st1" d="M124,31.6v2.8h3.1v0.8H124V38h3.5v0.9h-4.5v-8.1h4.5v0.9H124z"/>
	<path class="st1" d="M133.1,38.9l-2.1-3.3h-1.1v3.3h-1.1v-8.1h2.7c0.9,0,1.6,0.2,2.1,0.7c0.5,0.4,0.7,1,0.7,1.8
		c0,0.7-0.2,1.2-0.6,1.6c-0.4,0.4-0.9,0.7-1.6,0.8l4.7,5.8L133.1,38.9z M129.9,34.8h1.5c1.2,0,1.8-0.5,1.8-1.6c0-1-0.6-1.6-1.8-1.6
		h-1.5V34.8z"/>
</g>
<g>
	<path class="st1" d="M38,0c0,0-2,2.9-5.3,7c-1.6,2.1-3.5,4.5-5.6,7c-1,1.3-2.1,2.6-3.2,3.9c-1.1,1.3-2.2,2.6-3.4,4
		c-1.1,1.3-2.3,2.6-3.4,3.9c-1.1,1.3-2.3,2.5-3.4,3.8c-2.2,2.4-4.3,4.7-6.1,6.6c-3.6,3.8-6.1,6.2-6.1,6.2s2-2.9,5.3-7
		c1.6-2.1,3.5-4.5,5.6-7c1-1.3,2.1-2.6,3.2-3.9c1.1-1.3,2.2-2.6,3.4-4c1.1-1.3,2.3-2.6,3.4-3.9c1.1-1.3,2.3-2.5,3.4-3.8
		c2.2-2.4,4.3-4.7,6.1-6.6C35.5,2.4,38,0,38,0z"/>
</g>
<g>
	<path class="st1" d="M1.6,42.6c0,0,2.3-0.3,5.7-0.6c1.7-0.1,3.7-0.2,5.8-0.3c1.1,0,2.2-0.1,3.3-0.1c1.1,0,2.3,0,3.4,0
		c1.1,0,2.3,0,3.4,0c1.1,0,2.2,0.1,3.3,0.1c2.1,0.1,4.1,0.2,5.8,0.3c3.4,0.2,5.7,0.6,5.7,0.6s-2.3,0.3-5.7,0.6
		c-1.7,0.1-3.7,0.2-5.8,0.3c-1.1,0-2.2,0.1-3.3,0.1c-1.1,0-2.3,0-3.4,0c-1.1,0-2.3,0-3.4,0c-1.1,0-2.2-0.1-3.3-0.1
		C11,43.5,9,43.3,7.3,43.2C3.8,43,1.6,42.6,1.6,42.6z"/>
</g>
<g>
	<path class="st1" d="M21.2,25.7c0,0,0.6,0.7,1.3,1.9c0.7,1.1,1.5,2.7,2.2,4.4c0.7,1.7,1.2,3.4,1.4,4.7c0.3,1.3,0.3,2.3,0.3,2.3
		s-0.6-0.7-1.4-1.9c-0.7-1.1-1.5-2.7-2.2-4.4c-0.7-1.7-1.2-3.4-1.4-4.7C21.2,26.6,21.2,25.7,21.2,25.7z"/>
</g>
<g>
	<path class="st1" d="M23.9,24.1c0,0,1.3-0.3,3.2,0c0.5,0.1,1,0.2,1.5,0.3c0.5,0.2,1.1,0.4,1.7,0.7c0.3,0.2,0.6,0.3,0.8,0.5
		c0.3,0.2,0.5,0.4,0.8,0.7c0.5,0.5,0.9,1.1,1.3,1.8l0.1,0.1l0,0.1l0,0.1l0.1,0.2c0,0.2,0.1,0.3,0.1,0.5c0,0.4,0.1,0.9,0.1,1.2
		c0,0.7-0.2,1.4-0.4,2C33,33,32.8,33.5,32.5,34c-0.3,0.5-0.5,0.9-0.8,1.3c-0.5,0.8-1.1,1.4-1.4,1.8c-0.4,0.4-0.6,0.6-0.6,0.6
		s0.1-0.3,0.3-0.8c0.2-0.5,0.4-1.3,0.7-2.1c0.2-0.4,0.3-0.9,0.5-1.4c0.2-0.5,0.3-1,0.4-1.5c0-0.3,0.1-0.5,0.1-0.8c0-0.3,0-0.5,0-0.8
		c0-0.3-0.1-0.4-0.1-0.6c0-0.2-0.2-0.7-0.2-0.8c-0.2-0.4-0.5-0.9-0.8-1.2c-0.3-0.4-0.7-0.7-1.2-1c-0.9-0.6-1.8-1.1-2.6-1.4
		C25.1,24.5,23.9,24.1,23.9,24.1z"/>
</g>
</svg>
